<svg xmlns="http://www.w3.org/2000/svg" viewBox="471 265 50.069 50.069">
  <defs>
    <style>
      .cls-1 {
        fill: #ff3b1b;
      }

      .cls-2 {
        fill: none;
      }
    </style>
  </defs>
  <g id="ic_volume_off_black_24px" transform="translate(471 265)">
    <path id="Tracé_1" data-name="Tracé 1" class="cls-1" d="M31.164,21.776a9.389,9.389,0,0,0-5.216-8.407v4.611l5.111,5.111A8.829,8.829,0,0,0,31.164,21.776Zm5.216,0a14.275,14.275,0,0,1-1.127,5.508l3.15,3.15a18.351,18.351,0,0,0,2.149-8.658,18.769,18.769,0,0,0-14.6-18.3v4.3A14.614,14.614,0,0,1,36.379,21.776ZM5.649,3,3,5.649l9.868,9.868H3V28.034h8.345L21.776,38.466V24.425l8.866,8.866a14.444,14.444,0,0,1-4.694,2.462v4.3a18.754,18.754,0,0,0,7.7-3.776L37.9,40.552,40.552,37.9,21.776,19.126ZM21.776,5.086l-4.36,4.36,4.36,4.36Z" transform="translate(3.259 3.259)"/>
    <path id="Tracé_2" data-name="Tracé 2" class="cls-2" d="M0,0H50.069V50.069H0Z"/>
  </g>
</svg>
